# xmcd
#
# Track frame offsets:
#	150
#	39089
#	61589
#	87562
#	119320
#	171939
#	205406
#	233195
#	260579
#	291297
#
# Disc length: 4228 seconds
#
# Revision: 1
# Processed by: cddbd v1.5.1PL0 Copyright (c) Steve Scherf et al.
# Submitted via: EasyCDDAExtractor 7.0.3.1
#
DISCID=8b10820a
DTITLE=Various Artist - House 42
DYEAR=2005
DGENRE=House
TTITLE0=DEEP DISH - SAY HELLO(ANGELLO and INGROSSO REMIX)
TTITLE1=CLUB - DEEP INSIDE(EXTENTED MIX)
TTITLE2=DJ MANIAN - HEART OF THE MOMENT(CLUB MIX)
TTITLE3=JON SMITH - LOVE CHANGES(JERRY ROPERO VS. SUPERNOVA DUB REMIX)
TTITLE4=PAUL VAN DYK FT WAYNE JACKSON - THE OTHER SIDE(DEEP DISH OTHER THAN TH
TTITLE4=IS SIDE REMIX)
TTITLE5=HOUSE GROOVERS FT J& B - SAVED BY THE MUSIC(SSTM EXTENTED MIX 01)
TTITLE6=P.A.R.C. - SUSPICIOUS MINDS(P.ALIBERTI EXTENTED MIX)
TTITLE7=HERNANDEZ VS DJ TYO - LET'S GET DOWN)POWER EXTENTED MIX)
TTITLE8=HERNANDEZ VS DJ TYO - LET'S GET DOWN(CLUB DUB)
TTITLE9=DJ ROSS VS. DY - GET UP(EXTENTED MIX)
EXTD=
EXTT0=
EXTT1=
EXTT2=
EXTT3=
EXTT4=
EXTT5=
EXTT6=
EXTT7=
EXTT8=
EXTT9=
PLAYORDER=
